<svg xmlns="http://www.w3.org/2000/svg" xmlns:xlink="http://www.w3.org/1999/xlink" id="Layer_1" x="0px" y="0px" viewBox="0 0 2000 650" style="enable-background:new 0 0 2000 650;" xml:space="preserve"><style type="text/css">	.st0{fill:#1a1a1a;}	.st1{fill:#EC882B;}</style><path class="st0" d="M580.1,171.8v2c0,21.7-17.6,39.3-39.3,39.3h0c-21.7,0-39.3-17.6-39.3-39.3v-2c0-21.7,17.6-39.3,39.3-39.3h0 C562.4,132.4,580.1,150,580.1,171.8z"></path><rect x="506.1" y="239.7" class="st0" width="69.2" height="278.8"></rect><path class="st0" d="M683.7,139.5v379.1h-69.2V139.5H683.7z"></path><rect x="1256.7" y="240" class="st0" width="69.2" height="278.8"></rect><path class="st0" d="M1602.5,238.8c-2.1,1.6-4.2,3.3-6.2,5c-16.2,13.9-29.1,30.7-38.2,50.1c-1,2.2-2,4.4-3,6.8 c-1.2,2.8-2.4,5.6-3.4,8.5h-66.8v68.7c0,14.3,0.5,25.6,2,34.5c1.5,9.4,4,16.3,7.5,21.7c3.5,5.4,9,8.9,15.6,10.8 c6.5,2.5,15.5,3.4,26.1,3.4h19.9v70.5h-39.5c-15.6,0-29.1-2-41.6-5.4c-12.5-3.4-23.6-9.3-32.1-16.8c-9-7.4-16.1-17.2-20.6-28.6 c-5-11.3-7.5-25.1-7.5-41.4V309.3h-62.7v-70.5h62.7v-99.3h70.2v99.3H1602.5z"></path><path class="st0" d="M1780.8,446c-14.4,6-32.5,8.7-54.9,8.7c-10.7,0-20.4-0.9-29.8-3.2c-9.8-1.9-18.1-5.1-25.6-9.7 c-7.4-4.1-13.5-10.1-18.1-17.5c-5.1-7.4-8.4-16.6-10.2-27.2h239.4c0-30.9-3.7-56.7-11.6-76.9c-7.9-20.3-19.1-36.4-32.5-48.8 c-13.5-12.4-29.8-20.7-48.4-25.8c-18.6-5.1-38.6-7.4-59.5-7.4c-5.8,0-11.5,0.2-17.1,0.6c-15.8,1-30.6,3.5-44.7,7.3 c-19.1,5.1-34.9,13.4-48.4,24.9c-12.1,10.3-21.9,22.9-29.2,38.3c-0.9,1.8-1.7,3.6-2.4,5.5c-7.9,18-11.6,39.2-11.6,64 c0,24.9,3.7,46.1,11.6,63.6c7.9,18,18.6,32.3,32.1,43.8c13.5,11.5,29.3,19.8,47.4,24.9c18.1,5.1,37.6,7.8,58.6,7.8 c41.4,0,75.3-8.3,101.8-24.9c26-16.6,42.8-42.4,50.2-76.9h-64.2C1805.9,430.8,1794.8,440.5,1780.8,446z M1655.7,323 c5.1-6,11.2-11.1,18.6-14.7c7-3.7,15.3-6.5,24.7-7.8c9.3-1.4,19.5-2.3,30.2-2.3c10.2,0,20,0.9,28.8,2.3c8.8,1.4,17.2,4.1,24.2,7.8 c7,3.7,13.5,8.8,18.6,14.7c5.1,6.5,8.8,14.3,11.6,24h-168.3C1646.4,337.3,1650.6,329.5,1655.7,323z"></path><path class="st0" d="M1291.5,213.9c-22.4,0.1-40.3-17.5-40.5-39.9c-0.3-22.1,17.6-40.1,40-40.3c22.3-0.2,40.5,17.7,40.7,39.7 C1331.7,195.5,1313.5,213.8,1291.5,213.9z"></path><path class="st1" d="M294.8,355.6c-13.5,13.5-35.5,13.6-49,0.1s-13.4-35.5,0.1-49c13.5-13.5,67.9-19.1,67.9-19.1 S308.3,342.1,294.8,355.6z"></path><path class="st0" d="M809.5,402.9h-96v-15c0-30,24.3-54.3,54.3-54.3h96v15C863.8,378.6,839.5,402.9,809.5,402.9z"></path><g>	<path class="st0" d="M1876,133c4.3,0,8.1,0.7,11.3,2.1c3.2,1.4,5.9,3.4,8.1,6c2.2,2.6,3.8,5.5,4.9,9.1c1,3.5,1.6,7.4,1.6,11.6  c0,4.2-0.6,8-1.6,11.5c-1,3.5-2.7,6.6-4.9,9.2c-2.2,2.6-4.9,4.5-8.1,5.9c-3.2,1.4-7.1,2.2-11.3,2.2c-4.3,0-8.1-0.8-11.3-2.2  c-3.2-1.4-5.9-3.3-8.1-5.9c-2.2-2.6-3.8-5.6-4.9-9.2c-1-3.5-1.6-7.3-1.6-11.5c0-4.2,0.6-8.1,1.6-11.6c1-3.5,2.7-6.5,4.9-9.1  c2.2-2.6,4.9-4.6,8.1-6C1867.9,133.6,1871.7,133,1876,133z M1876,182.9c6.1,0,11-1.7,14.5-5.2c3.5-3.4,5.3-8.8,5.3-15.9  c0-7.1-1.8-12.5-5.3-16c-3.5-3.4-8.4-5.1-14.5-5.1c-6.1,0-10.9,1.7-14.4,5.1c-3.5,3.5-5.3,8.9-5.3,16c0,7.1,1.8,12.5,5.3,15.9  C1865.1,181.2,1869.9,182.9,1876,182.9z M1889,158.4c0,2-0.4,3.8-1.1,5.2c-0.9,1.4-1.9,2.6-3.2,3.2l3.8,7.5h-6.3l-3.3-6.8h-8.5v6.8  h-5.2v-25.3h16.1c2.4,0,4.3,0.9,5.7,2.5S1889,155.5,1889,158.4z M1870.4,154.6v7.6h9.4c0.4,0,0.9,0,1.3-0.1c0.5,0,0.9-0.1,1.2-0.4  c0.4-0.3,0.8-0.7,1-1.1c0.3-0.5,0.4-1.2,0.4-2.2c0-1-0.1-1.7-0.4-2.2c-0.3-0.5-0.7-0.9-1-1.1c-0.4-0.3-0.8-0.4-1.2-0.5  c-0.5,0-1,0-1.3,0H1870.4z"></path></g><path class="st0" d="M465.4,319.6c0-0.7,0-1.3-0.1-2v-99.4C448,235,425.6,246.7,400,251.7c-3.6,0.7-7.3,1.2-11.3,1.5l-3.3,0.3v72 c0,1,0,2,0,3.1v0.6c-0.1,3.4-0.2,7-0.6,10.5c-5,54.6-54.3,99-110,99c-5.8,0-11.7-0.5-17.5-1.5c-58.3-9.9-98.4-61.5-93.2-120 c5.2-58.2,53.4-102.1,112.2-102.1l0.8,0c13.3,0.1,27.4,0.1,43.1,0.1c8.9,0,17.9,0,26.6,0c5.3,0,10.4,0,15.4,0c5,0,9.9,0,14.5-0.1 c3.1,0,5.9-0.1,8.6-0.4c2.5-0.2,4.9-0.5,7.2-1c40.4-7.7,68.1-38,72.7-79.2c-63.6,0-127.2,0.1-190.8,0.1h-0.2 c-8.8,0-17.3,0.6-25.3,1.7c-50.4,7-95.2,33.5-126.1,74.4c-30.9,40.9-44.1,91.3-37.2,141.8c6.4,46.6,29.1,89,63.9,119.4 c34.5,30.2,78.7,46.8,124.5,46.8c10.4,0,20.9-0.9,31.3-2.5c32-5.2,61-17.8,86.1-37.4c23.6-18.4,42.9-42.7,55.7-70.2 C460.3,380.9,466.6,350.1,465.4,319.6z"></path><path class="st0" d="M1173.1,411.4l-9.2-16.9c19-9.5,34.1-24.1,45.1-44.6c9.6-17.4,15-38.4,16.2-62.4c0.1-2.1,0.2-4.2,0.2-6.3 c0.1-1.5,0.1-3,0.1-4.6c0-4.4-0.1-8.8-0.4-13c0,0,0,0,0,0c-0.9-14.6-3.3-28.1-7.6-40.1c-5.5-15.6-12.6-29.1-22.1-40.6 c-6.3-7.7-13.6-14-21.7-19.1l0,0c-4.1-2.6-8.4-4.9-12.9-6.9c-2.7-1.2-5.5-2.3-8.4-3.2c-0.1,0-0.1,0-0.2-0.1c0,0-0.1,0-0.1,0 c-14.7-5.9-30.4-10.2-47-12.4c-8.2-1.1-16.6-1.6-24.9-1.5c-60,0.1-120.1,0.1-180.1-0.1c-3.7,0-5.7,0.5-6.3,2.7 c4.5,34.5,24,61.5,52.9,74.4c6.5,2.7,13.6,4.8,21,6.1c1.7,0.3,3.3,0.5,5,0.7h123.9c6.3,0,14,0,21.4,0.7c13.3,2.6,22.1,8.7,29.3,21.3 c0.9,2,1.8,4.3,2.5,6.6c0,0,0,0,0,0c2,6.5,3,14.5,3,24.4v0.9c0,2.7-0.1,5.3-0.3,7.7c-0.1,0.8-0.1,1.5-0.2,2.3 c-0.8,7.9-2.5,14.3-5,19.3c-6.5,12.2-14.3,17.8-25.5,21.1c-8.6,0.6-17.7,1.5-25.1,1.5H966.8v-65c-2.4-0.3-4.7-0.7-7-1.1 c-25.9-5.2-48.5-17.6-66.1-35.2v290.8h73.2V405h117.8l60.5,113.6h86.2L1173.1,411.4z"></path></svg>