<svg xmlns="http://www.w3.org/2000/svg" id="uuid-eb5dba29-b177-46a4-863c-750bbe36b85e" data-name="Layer_1" viewBox="0 0 825 200"><defs><style>      .uuid-f3b59921-a4a5-4caa-9737-90cff340a07f {        fill: #0a2240;      }      .uuid-4ec6959d-ccab-4272-b514-eb1a8c6a1ef1 {        fill: #00ce7c;      }    </style></defs><g><g><path class="uuid-f3b59921-a4a5-4caa-9737-90cff340a07f" d="M134.49,52.23c0,2.34-.3,4.61-.86,6.74-2.84,10.86-12.49,18.55-24.43,18.55h-58.95v24.7h-22.75v-43.26h77.51c3.8,0,6.74-2.93,6.74-6.74s-2.93-6.74-6.74-6.74H27.5v-18.55h81.7c11.95,0,21.59,7.69,24.43,18.55.56,2.13.86,4.4.86,6.74Z"></path><polygon class="uuid-f3b59921-a4a5-4caa-9737-90cff340a07f" points="359.05 83.67 359.05 102.23 267.44 102.23 267.44 26.94 290.18 26.94 290.18 83.67 359.05 83.67"></polygon><polygon class="uuid-f3b59921-a4a5-4caa-9737-90cff340a07f" points="445.4 26.94 428.57 45.49 416.36 58.97 402.34 74.42 402.34 102.23 379.6 102.23 379.6 74.42 365.58 58.97 353.35 45.49 336.52 26.94 361.89 26.94 378.74 45.49 390.96 58.97 403.2 45.49 420.04 26.94 445.4 26.94"></polygon><polygon class="uuid-f3b59921-a4a5-4caa-9737-90cff340a07f" points="571.85 26.94 571.85 102.23 549.11 102.23 549.11 57.51 548.06 58.97 517 102.23 507.82 102.23 476.76 58.97 475.7 57.51 475.7 102.23 452.96 102.23 452.96 26.94 475.7 26.94 489.09 45.49 498.82 58.97 512.41 77.81 526 58.97 535.72 45.49 549.11 26.94 571.85 26.94"></polygon><path class="uuid-f3b59921-a4a5-4caa-9737-90cff340a07f" d="M608.37,83.67v-13.04h66.66v-11.67h-89.41v43.26h91.62v-18.55h-68.87ZM585.62,26.94v18.55h91.62v-18.55h-91.62Z"></path><path class="uuid-f3b59921-a4a5-4caa-9737-90cff340a07f" d="M797.5,52.23c0-14.28-11-25.29-25.3-25.29h-81.7v18.55h77.51c3.81,0,6.74,2.93,6.74,6.74s-2.93,6.74-6.74,6.74h-77.51v43.26h22.75v-24.7h43.68l17.82,24.7h22.75l-18.58-25.73c10.85-2.71,18.58-12.34,18.58-24.26Z"></path></g><path class="uuid-f3b59921-a4a5-4caa-9737-90cff340a07f" d="M256.22,64.58c0,21.26-16.36,37.65-37.65,37.65h-39.24c-21.28,0-37.65-16.39-37.65-37.65,0-1.91.13-3.79.39-5.61.69-4.89,2.26-9.43,4.58-13.48,6.41-11.21,18.44-18.55,32.68-18.55h39.24c14.24,0,26.28,7.34,32.68,18.55h-67.74c-8.82,0-15.97,5.56-18.28,13.48-.52,1.76-.8,3.64-.8,5.61,0,10.78,8.3,19.1,19.09,19.1h30.87c10.78,0,19.09-8.31,19.09-19.1,0-1.96-.28-3.85-.8-5.61h23.16c.26,1.82.39,3.69.39,5.61Z"></path></g><g><path class="uuid-4ec6959d-ccab-4272-b514-eb1a8c6a1ef1" d="M150.92,136.83l27.21,36.23h-7.96l-5.74-7.93h-29.76l-5.74,7.93h-7.96l27.21-36.23h2.75ZM138.4,160.45h22.29l-11.15-15.38-11.15,15.38Z"></path><path class="uuid-4ec6959d-ccab-4272-b514-eb1a8c6a1ef1" d="M230.45,136.83c10.24,0,18.11,7.89,18.11,18.11s-7.87,18.11-18.11,18.11h-29.85v-36.23h29.85ZM207.75,167.23h21.39c6.94,0,12.28-5.35,12.28-12.28s-5.34-12.28-12.28-12.28h-21.39v24.56Z"></path><path class="uuid-4ec6959d-ccab-4272-b514-eb1a8c6a1ef1" d="M279.88,136.83v14.56h32.29v-14.56h7.15v36.23h-7.15v-16.5h-32.29v16.5h-7.15v-36.23h7.15Z"></path><path class="uuid-4ec6959d-ccab-4272-b514-eb1a8c6a1ef1" d="M385.8,136.83v5.83h-33.94v9.44h32.6v4.25h-32.6v10.87h33.94v5.83h-41.09v-36.23h41.09Z"></path><path class="uuid-4ec6959d-ccab-4272-b514-eb1a8c6a1ef1" d="M454.51,136.83v5.83h-33.62c-2.65,0-4.68,2.04-4.68,4.68s2.04,4.68,4.68,4.68h24.5c5.94,0,10.51,4.58,10.51,10.51s-4.57,10.52-10.51,10.52h-35.9v-5.83h34.59c2.65,0,4.68-2.04,4.68-4.68s-2.03-4.68-4.68-4.68h-24.5c-5.94,0-10.51-4.58-10.51-10.51s4.57-10.52,10.51-10.52h34.93Z"></path><path class="uuid-4ec6959d-ccab-4272-b514-eb1a8c6a1ef1" d="M487.18,136.83v36.23h-7.15v-36.23h7.15Z"></path><path class="uuid-4ec6959d-ccab-4272-b514-eb1a8c6a1ef1" d="M517.65,136.83l20.39,27.99,20.4-27.99h8.13l-26.99,36.23h-3.14l-26.99-36.23h8.19Z"></path><path class="uuid-4ec6959d-ccab-4272-b514-eb1a8c6a1ef1" d="M630.1,136.83v5.83h-33.94v9.44h32.6v4.25h-32.6v10.87h33.94v5.83h-41.09v-36.23h41.09Z"></path><path class="uuid-4ec6959d-ccab-4272-b514-eb1a8c6a1ef1" d="M698.81,136.83v5.83h-33.62c-2.65,0-4.68,2.04-4.68,4.68s2.04,4.68,4.68,4.68h24.5c5.94,0,10.51,4.58,10.51,10.51s-4.57,10.52-10.51,10.52h-35.9v-5.83h34.59c2.65,0,4.68-2.04,4.68-4.68s-2.03-4.68-4.68-4.68h-24.5c-5.94,0-10.51-4.58-10.51-10.51s4.57-10.52,10.51-10.52h34.93Z"></path></g></svg>